<?xml version="1.0" standalone="no"?>
<!DOCTYPE svg PUBLIC "-//W3C//DTD SVG 20010904//EN"
 "http://www.w3.org/TR/2001/REC-SVG-20010904/DTD/svg10.dtd">
<svg version="1.0" xmlns="http://www.w3.org/2000/svg"
 width="500.000000pt" height="500.000000pt" viewBox="0 0 500.000000 500.000000"
 preserveAspectRatio="xMidYMid meet">

<g transform="translate(0.000000,500.000000) scale(0.100000,-0.100000)"
fill="#000000" stroke="none">
<path d="M2199 3200 c-7 -22 -17 -44 -23 -49 -6 -5 -101 -18 -211 -31 -184
-20 -405 -53 -447 -66 -37 -11 -19 -41 50 -80 85 -49 178 -142 218 -219 39
-75 77 -187 72 -217 -3 -20 -9 -23 -53 -25 -103 -5 -175 -15 -175 -24 0 -5 54
-9 120 -9 l120 0 0 -36 c0 -20 -29 -122 -65 -226 -36 -104 -68 -214 -71 -244
-6 -50 -5 -54 14 -54 46 0 112 178 141 383 10 70 25 135 32 144 28 33 75 43
210 43 73 0 130 2 127 5 -3 3 -69 9 -146 13 -78 5 -145 11 -148 15 -7 7 94
261 189 472 53 118 54 120 93 128 21 5 116 7 209 4 148 -3 179 -7 243 -29 72
-25 92 -22 48 7 -49 33 -162 47 -348 43 l-176 -3 14 34 c19 45 18 61 -6 61
-14 0 -23 -11 -31 -40z m-39 -95 c0 -3 -13 -31 -28 -63 -16 -31 -76 -165 -133
-297 -60 -138 -105 -231 -107 -220 -11 63 -69 210 -107 271 -49 78 -103 133
-189 190 -31 20 -55 38 -53 40 6 6 244 46 377 64 136 18 240 25 240 15z m-323
-954 c-5 -41 -54 -158 -62 -149 -6 5 55 188 62 188 3 0 3 -18 0 -39z"/>
<path d="M2993 3123 c-22 -27 -56 -74 -77 -106 -40 -63 -195 -371 -241 -479
-34 -78 -89 -127 -179 -158 -69 -25 -107 -25 -136 -2 -18 15 -21 24 -15 50 8
37 34 57 88 66 39 7 107 59 107 81 0 24 -39 44 -69 35 -98 -28 -161 -101 -161
-185 0 -95 155 -101 275 -11 16 12 35 25 41 29 6 3 -2 -31 -18 -76 -42 -117
-75 -257 -88 -370 -10 -88 -10 -101 7 -135 13 -27 25 -38 46 -40 35 -4 35 15
1 29 l-27 10 6 107 c14 263 180 678 408 1021 90 137 110 181 80 181 -5 0 -27
-21 -48 -47z m-511 -573 c-33 -31 -92 -45 -62 -16 18 18 71 46 85 46 6 0 -5
-14 -23 -30z"/>
<path d="M2984 2735 c-7 -17 2 -45 14 -45 20 0 45 28 39 44 -8 20 -46 21 -53
1z"/>
<path d="M2923 2628 c-38 -42 -82 -120 -104 -185 -20 -60 -20 -65 -4 -89 33
-50 85 -50 190 4 54 27 155 102 155 114 0 15 -13 8 -67 -37 -108 -88 -232
-126 -248 -75 -8 24 33 117 89 204 20 31 36 63 36 71 0 22 -24 18 -47 -7z"/>
<path d="M3252 2535 c-22 -19 -42 -35 -45 -35 -3 0 -8 14 -12 30 -4 17 -13 30
-21 30 -11 0 -13 -11 -8 -55 6 -52 5 -58 -35 -118 -22 -35 -41 -69 -41 -75 0
-25 16 -10 48 43 18 30 37 57 42 60 5 3 24 -17 41 -45 49 -80 104 -98 186 -61
71 33 180 148 159 169 -3 3 -7 3 -9 1 -86 -121 -135 -160 -210 -167 -40 -4
-52 -1 -72 18 -33 31 -59 102 -50 137 7 32 42 73 61 73 17 0 27 17 15 25 -6 3
-28 -10 -49 -30z"/>
</g>
</svg>
